<svg style="position: absolute; width: 0; height: 0; overflow: hidden;" aria-hidden="true" version="1.1" xmlns="http://www.w3.org/2000/svg" xmlns:xlink="http://www.w3.org/1999/xlink">
    <style>
        .default-palette, .palette0 {color: currentColor;
            --color0: #212121;
            --color1: #2196f3;
        }
    </style>
    <defs>
        <symbol id="diagram1" viewBox="0 0 70 70" fill="none">
            <g fill="var(--color1, #2196f3)" clip-path="url(#clip0_11_3271)">
                <path d="M32.6496 32.7351h2.3321v10.4945h-2.3321z" />
                <path d="M41.978 37.3993h2.3321v5.8303H41.978z" />
                <path d="M23.3211 40.8975h2.3321v2.3321h-2.3321z" />
                <path d="M16.3248 39.7314h2.3321v3.4981h-2.3321z" />
                <path fill="var(--color0, #212121)" d="M3.4982 61.8865h55.9707c1.9318 0 3.4981-1.5663 3.4981-3.4982v-4.6642c0-1.9318-1.5663-3.4982-3.4981-3.4982h-1.1661v-29.079l6.6234-6.2744c1.5373 0.7578 3.398 0.2977 4.404-1.0909 1.0067-1.3881 0.8655-3.2995-0.3336-4.5248-1.1991-1.2252-3.1065-1.408-4.5168-0.4327-1.4097 0.9759-1.9108 2.8258-1.1865 4.3796l-4.9905 4.7308v-2.6902c0-1.9319-1.5663-3.4982-3.4982-3.4982H8.1624c-1.9319 0-3.4982 1.5663-3.4982 3.4982l0 34.9816h-1.166C1.5663 50.2259 0 51.7923 0 53.7241v4.6642c0 1.9319 1.5663 3.4982 3.4982 3.4982zM66.4652 10.58c0.6439 0 1.166 0.5221 1.166 1.1661 0 0.6439-0.5221 1.166-1.166 1.166-0.644 0-1.1661-0.5221-1.1661-1.166 0-0.644 0.5221-1.1661 1.1661-1.1661zM6.9963 15.2443c0-0.644 0.5221-1.1661 1.1661-1.1661h46.6422c0.644 0 1.1661 0.5221 1.1661 1.1661v4.8971l-2.3321 2.2159v-4.7809c0-0.644-0.5221-1.1661-1.1661-1.1661h-41.978c-0.644 0-1.1661 0.5221-1.1661 1.1661l0 29.1514c0 0.6439 0.5221 1.166 1.1661 1.166h41.978c0.644 0 1.1661-0.5221 1.1661-1.166V25.5651l2.3321-2.2097v26.8705H6.9963zM17.4908 30.403c-1.5777-46e-4-2.9629 1.0465-3.3825 2.5673-0.4197 1.5207 0.23 3.1337 1.5868 3.9388 1.3562 0.8051 3.0842 0.603 4.2178-0.4942l4.0533 2.0338c0.4709 0.2357 1.0419 0.1252 1.3921-0.2682l8.6162-9.6934 8.4698 6.3467c0.4544 0.3405 1.0886 0.304 1.5009-0.086l7.3613-6.973v17.7869H11.6606V18.7424h39.6459v5.8195l-8.2501 7.8128-8.541-6.4031c-0.4851-0.3632-1.1678-0.2949-1.5709 0.1578l-8.7346 9.8277-3.2653-1.6329c0.0239-0.1401 0.0387-0.2813 0.0444-0.423 0-1.9319-1.5663-3.4982-3.4982-3.4982zM18.6569 33.9012c0 0.6439-0.5221 1.166-1.1661 1.166-0.6439 0-1.166-0.5221-1.166-1.166 0-0.644 0.5221-1.1661 1.166-1.1661 0.644 0 1.1661 0.5221 1.1661 1.1661zM25.6532 52.5581h11.6606v1.166c0 0.644-0.5221 1.1661-1.1661 1.1661h-9.3284c-0.644 0-1.1661-0.5221-1.1661-1.1661zM2.3321 53.7241c0-0.6439 0.5221-1.166 1.1661-1.166h19.8229v1.166c0 1.9319 1.5663 3.4982 3.4982 3.4982h9.3284c1.9319 0 3.4982-1.5663 3.4982-3.4982v-1.166h19.823c0.6439 0 1.166 0.5221 1.166 1.166v4.6642c0 0.644-0.5221 1.1661-1.166 1.1661H3.4982c-0.644 0-1.1661-0.5221-1.1661-1.1661z" />
            </g>
            <defs>
                <clipPath id="clip0_11_3271">
                    <rect fill="#fff" width="70" height="70" />
                </clipPath>
            </defs>
        </symbol>
        <symbol id="astronaut1" viewBox="0 0 70 70" fill="none">
            <g fill="var(--color1, #2196f3)" clip-path="url(#clip0_11_3271)">
                <path d="M69.9433 9.8964c-0.1377-0.4213-0.5017-0.7292-0.9415-0.7934l-4.179-0.6079-1.8702-3.787c-0.392-0.798-1.6999-0.798-2.0918 0l-1.8702 3.787-4.1792 0.608c-0.4398 0.0641-0.8038 0.3711-0.9427 0.7934-0.1364 0.4223-0.0234 0.8866 0.2952 1.1959l3.0252 2.9483-0.7139 4.1627c-0.0747 0.4375 0.105 0.8797 0.4632 1.1411 0.3628 0.2637 0.8364 0.2962 1.2296 0.0886l3.7381-1.9659 3.7381 1.9659c0.1704 0.0898 0.3582 0.1341 0.5437 0.1341 0.2415 0 0.4831-0.0747 0.6861-0.2229 0.3593-0.2612 0.539-0.7035 0.4632-1.141l-0.7139-4.1628 3.0252-2.9482c0.3169-0.3104 0.4313-0.7736 0.2948-1.1959zM64.5556 12.7991c-0.2741 0.2671-0.4001 0.6545-0.3348 1.0325l0.4177 2.4372-2.1886-1.1504c-0.1704-0.0898-0.357-0.1341-0.5438-0.1341-0.1866 0-0.3721 0.0443-0.5437 0.1341l-2.1888 1.1504 0.4177-2.4372c0.0654-0.378-0.0607-0.7641-0.3348-1.0325l-1.7722-1.7267 2.4477-0.3558c0.3804-0.0549 0.7082-0.294 0.8786-0.6383l1.0943-2.2166 1.0943 2.2166c0.1704 0.3442 0.4982 0.5834 0.8786 0.6383l2.4477 0.3558z" />
                <path d="M57.167 44.8923h-2.3334v2.3334h2.3334z" />
                <path d="M57.167 49.5591h-2.3334v2.3334h2.3334z" />
                <path d="M59.5004 47.2257H57.167v2.3334h2.3334z" />
                <path d="M54.8337 47.2257h-2.3334v2.3334h2.3334z" />
                <path d="M49.0002 57.7259h-2.3334v2.3334h2.3334z" />
                <path d="M49.0002 62.3926h-2.3334v2.3334h2.3334z" />
                <path d="M51.3337 60.0593h-2.3335v2.3334h2.3335z" />
                <path d="M46.6668 60.0593h-2.3334v2.3334h2.3334z" />
                <path d="M35 53.0592h-2.3334v2.3334H35z" />
                <path d="M35 57.7259h-2.3334v2.3334H35z" />
                <path d="M37.3334 55.3925H35v2.3334h2.3334z" />
                <path d="M32.6666 55.3925h-2.3334v2.3334h2.3334z" />
                <path d="M12.833 13.3918h-2.3334v2.3334h2.3334z" />
                <path d="M12.833 18.0587h-2.3334v2.3334h2.3334z" />
                <path d="M15.1663 15.7252h-2.3334v2.3334h2.3334z" />
                <path d="M10.4996 15.7252H8.1662v2.3334h2.3334z" />
                <path fill="var(--color0, #212121)" d="M54.0635 30.9738c-0.6287-0.8482-1.5516-1.3941-2.5993-1.5412-1.0523-0.1493-2.0907 0.1271-2.9307 0.77l-2.7383 2.0988-12e-4 12e-4-4.1511 3.0999-2.9704-1.1831c5.2967-2.3765 8.9987-7.6744 8.9987-13.8252 0-8.3628-6.831-15.1668-15.2276-15.1668-8.3966 0-15.2274 6.804-15.2274 15.1668 0 3.0311 0.9064 5.8497 2.45 8.2216l-6.0458-0.0525c-35e-4 0-7e-3 0-0.0105 0-0.0187 0-0.0338 93e-4-0.0513 0.0105-0.1155 47e-4-0.2287 0.028-0.3395 0.0677-0.028 0.0105-0.0571 0.0164-0.0839 0.0291-0.014 59e-4-0.028 7e-3-0.042 0.014l-7.0724 3.4918c-13e-4 0-23e-4 0-23e-4 11e-4l-4.1419 1.9918c-0.0455 0.0198-0.0921 0.0466-0.1377 0.0769-1.6509 1.099-2.2132 3.2574-1.3089 5.0214 0.4818 0.938 1.302 1.6287 2.31 1.9448 0.3886 0.1213 0.7852 0.1809 1.1795 0.1809 0.6336 0 1.2613-0.1552 1.8363-0.462l3.0358-1.6146 4.9525-2.5574 2.9681-0.0175L4.8085 48.5884c-11e-4 12e-4-24e-4 12e-4-36e-4 23e-4l-2.9284 2.9167c-0.6918 0.6884-1.0722 1.6018-1.0722 2.5761 0 0.973 0.3804 1.8888 1.0722 2.5784 0.7105 0.707 1.645 1.0616 2.5795 1.0616 0.9357 0 1.869-0.3546 2.5818-1.0616l2.8747-2.8631 3.8081-2.8432 1.9706 1.9623-3.8536 3.8372c-11e-4 13e-4-24e-4 13e-4-36e-4 24e-4l-2.9284 2.9166c-0.6918 0.6884-1.0722 1.6018-1.0722 2.5761 0 0.9731 0.3804 1.8888 1.0722 2.5784 0.7105 0.707 1.6462 1.0617 2.5807 1.0617s1.8702-0.3547 2.5819-1.0617l2.9295-2.9166 4.6865-4.6667c12e-4-13e-4 12e-4-24e-4 23e-4-36e-4l2.2086-2.1875-82e-4-82e-4c0.014-0.014 0.0338-0.0188 0.0479-0.0338l11.3005-12.3773 7.5928 1.0803c0.0548 82e-4 0.1096 0.0117 0.1645 0.0117 0.1412 0 0.2777-0.0338 0.4095-0.084 0.0385-0.0139 0.0723-0.0327 0.1085-0.0513 0.042-0.021 0.0863-0.0326 0.1261-0.0594l7.0292-4.6667c0.0257-0.0175 0.0397-0.0456 0.0641-0.0642 0.028-0.0221 0.0631-0.0314 0.0886-0.056l2.7813-2.6052c1.4472-1.356 1.6467-3.5773 0.4636-5.1663zM4.6603 38.8722c-0.3792 0.203-0.8097 0.2437-1.2215 0.1132-0.4084-0.1272-0.7397-0.4061-0.9334-0.7829-0.3523-0.6861-0.1482-1.5214 0.469-1.9729l2.8736-1.3825 0.6918 2.0218 0.2905 0.8493zM12.3102 34.874 8.9234 36.6241 8.3646 34.9907 7.9633 33.8169l4.4335-2.1887zM45.3402 20.3919c0 2.009-0.4795 3.9038-1.3102 5.5988l-9.1468-4.1545c-0.0957-1.2541-0.7466-2.352-1.7243-3.0357l3.2026-10.632c5.2011 1.6545 8.9787 6.5067 8.9787 12.2234zM19.5519 20.3919c0-7.076 5.7844-12.8336 12.8942-12.8336 0.553 0 1.0943 0.0466 1.6298 0.1143l-3.1325 10.3987c-0.042-12e-4-0.0817-0.0128-0.1249-0.0128-2.2587 0-4.0963 1.8316-4.0963 4.0834 0 2.2517 1.8376 4.0835 4.0963 4.0835 1.519 0 2.8315-0.8388 3.5397-2.0663l8.4491 3.8384c-2.3509 3.164-6.1135 5.228-10.3614 5.228-7.1096 0-12.894-5.7576-12.894-12.8336zM32.5814 22.1419c0 0.9649-0.7911 1.75-1.7629 1.75s-1.7628-0.7851-1.7628-1.75c0-0.9648 0.791-1.75 1.7628-1.75s1.7629 0.7852 1.7629 1.75zM5.3919 55.0074c-0.5168 0.5122-1.3534 0.5111-1.869 13e-4-0.2486-0.2486-0.385-0.5763-0.385-0.9252 0-0.3477 0.1364-0.6756 0.385-0.9217l2.1045-2.0966 1.862 1.8539zM12.4222 63.1743c-0.5168 0.5122-1.3545 0.5134-1.8702 12e-4-0.2486-0.2485-0.385-0.5762-0.385-0.9252 0-0.3476 0.1364-0.6755 0.385-0.9216l2.1059-2.0977 0.8809 0.8763 0.9823 0.9776zM20.0384 55.5862c-13e-4 11e-4-24e-4 11e-4-36e-4 23e-4l-3.8606 3.85-0.8809-0.8762-0.9823-0.9777 3.857-3.8395c0 0 0 0 0-11e-4 13e-4-12e-4 23e-4-12e-4 36e-4-23e-4 0.0875-0.0875 0.1423-0.1925 0.196-0.2963 0.0152-0.0304 0.0443-0.0561 0.0572-0.0875 0.0362-0.0898 0.042-0.1866 0.056-0.2812 7e-3-0.0538 0.0304-0.1038 0.0304-0.1588 0-0.0782-0.028-0.1539-0.0443-0.231-0.014-0.07-0.014-0.1413-0.0409-0.2088-0.0443-0.1097-0.1202-0.2065-0.1995-0.3011-0.0221-0.0257-0.0303-0.0584-0.0548-0.0828 0 0 0 0-12e-4 0-12e-4-11e-4-12e-4-36e-4-23e-4-47e-4l-3.5153-3.5c-0.0373-0.0374-0.0851-0.0525-0.1271-0.084-0.0618-0.0478-0.1213-0.0921-0.1902-0.126-0.0664-0.0327-0.1341-0.0525-0.2041-0.0713-0.0747-0.021-0.147-0.0373-0.2252-0.0432-0.0712-46e-4-0.1377 24e-4-0.2088 0.0106-0.0782 93e-4-0.1516 0.0198-0.2275 0.0443-0.0735 0.0233-0.1388 0.0594-0.2064 0.098-0.0432 0.0245-0.0922 0.0327-0.1331 0.063l-3.8791 2.8958-1.9706-1.9624 5.2478-5.2197 9.5388 9.3814zM34.9545 40.2372c-0.0338-47e-4-0.0654 82e-4-0.0991 59e-4-0.0852-47e-4-0.1668 12e-4-0.252 0.0151-0.0665 0.0117-0.1295 0.0245-0.1925 0.0467-0.0747 0.0257-0.1423 0.0607-0.2113 0.1026-0.0653 0.0397-0.1248 0.0817-0.1819 0.1342-0.0281 0.0244-0.0618 0.0362-0.0875 0.0641L23.6527 51.862l-9.4676-9.3114 6.1974-6.1647c0.4562-0.455 0.4586-1.1936 35e-4-1.6509-0.2298-0.2298-0.5319-0.343-0.8341-0.3418v-11e-4l-4.8534 0.0291 0.0607-3.5163 6.7901 0.0584c2.7673 2.8304 6.6267 4.5956 10.8968 4.5956 0.9566 0 1.89-0.0991 2.7988-0.2684 0.0875 0.07 0.1737 0.1412 0.2835 0.1855l5.2712 2.1001 0.3336 1.6589 0.3896 1.9367zM43.7944 40.6269l-0.6848-3.408 3.164-2.3625 0.8284 1.099 1.2425 1.6496zM52.0055 34.4341l-1.8329 1.7173-2.037-2.7043 1.8188-1.3942c0.3395-0.2612 0.7677-0.3675 1.1877-0.3126 0.4223 0.0594 0.7957 0.28 1.05 0.6218 0.4738 0.6382 0.3932 1.5284-0.1866 2.072z" />
                <path fill="var(--color0, #212121)" d="M29.7545 40.5651l-4.6877-4.6667c-0.4538-0.4538-1.1913-0.4538-1.6463 0l-4.6865 4.6667c-0.2193 0.2205-0.343 0.5168-0.343 0.8271 0 0.3104 0.1225 0.6079 0.343 0.8272l4.6865 4.6667c0.2275 0.2263 0.5263 0.3395 0.8238 0.3395s0.5961-0.1132 0.8225-0.3395l4.6877-4.6667c0.2193-0.2193 0.3442-0.5168 0.3442-0.8272 0-0.3103-0.1238-0.6078-0.3442-0.8271zM24.2443 44.4128l-3.0334-3.0206 3.0334-3.0205 3.0345 3.0205z" />
                <path fill="var(--color0, #212121)" d="M37.5468 11.0923 36.9833 13.358c0.1552 0.0386 3.8011 0.9882 3.8011 4.7006h2.3334c-1e-4-4.4125-3.6436-6.4868-5.571-6.9663z" />
                <path fill="var(--color0, #212121)" d="M43.1178 20.3919h-2.3334v2.3334h2.3334z" />
            </g>
        </symbol>
        <symbol id="antenna1" viewBox="0 0 70 70" fill="none">
            <path fill="var(--color0, #212121)" d="M67.3163 48.3385 48.8468 29.7337l2.0498-10.0964c0.529 0.2065 1.0913 0.3144 1.659 0.3185h0.014c2.6081 0.0308 4.7473-2.0584 4.7783-4.6665 0.0309-2.6081-2.0585-4.7473-4.6666-4.7782-2.6081-0.0308-4.7473 2.0584-4.7782 4.6665-66e-4 0.5581 0.0857 1.1129 0.2729 1.6387l-10.85 1.3242L19.6276 0.35C19.4105 0.1285 19.1141 25e-4 18.804 0c-0.3063 16e-4-0.5996 0.1235-0.8167 0.3395l-3.3087 3.29c-0.4554 0.4556-0.4554 1.1941 0 1.6497l1.7804 1.806c-6.8974 12.6829-4.6571 28.3889 5.5113 38.6376 0.0933 0.0893 0.2015 0.1615 0.3197 0.2135-0.0735 0.3948-0.1119 0.7954-0.1144 1.197v13.5334h-14c-3.22 38e-4-5.8295 2.6133-5.8333 5.8333l0 2.3333C2.3423 69.4776 2.8647 70 3.509 70h53.6666c0.6443 0 1.1667-0.5224 1.1667-1.1667V66.5c-38e-4-3.22-2.6133-5.8295-5.8333-5.8333h-14v-5.9979c2.1931 0.46 4.4277 0.6945 6.6686 0.7 5.3772-58e-4 10.6688-1.3463 15.4-3.9013l1.7897 1.8002c0.2171 0.2215 0.5135 0.3475 0.8237 0.35 0.3062-16e-4 0.5995-0.1236 0.8166-0.3395l3.3087-3.29c0.4554-0.4556 0.4554-1.1941 0-1.6497zM50.9246 13.6348c0.9137-0.9088 2.3911-0.9047 3.2998 89e-4 0.9088 0.9137 0.9047 2.3911-89e-4 3.2998-0.4374 0.435-1.0291 0.6791-1.646 0.679h-7e-3c-1.2886-67e-4-2.328-1.0567-2.3213-2.3454 33e-4-0.6169 0.2506-1.2072 0.6879-1.6423zM48.1783 21.301l-1.309 6.4435-2.5713-2.5865zM46.853 19.3282l-4.2 4.1755-3.2492-3.2667zM52.509 63c1.933 0 3.5 1.567 3.5 3.5v1.1667H4.6756l0-1.1667c0-1.933 1.567-3.5 3.5-3.5zM36.1756 58.3333v2.3334H24.509v-2.3334zM24.509 56v-8.8667C24.509 44.303 27.1258 42 30.3423 42s5.8333 2.303 5.8333 5.1333V56zM38.509 52.29v-5.1567c0-4.1171-3.6634-7.4666-8.1667-7.4666-2.9117-0.0447-5.6344 1.4374-7.1773 3.9071-8.8763-9.3489-10.8751-23.2863-4.9845-34.7531L58.872 49.7455c-6.2834 3.1964-13.4863 4.0963-20.363 2.5445zM63.2038 50.7943 61.56 49.1412 18.7923 6.1157 17.1415 4.4613l1.6508-1.645L36.15 20.272c81e-4 0 0.0128 0.0152 0.021 0.021l28.6883 28.8563z" />
            <path fill="var(--color1, #2196f3)" d="M30.3528 44.3333h-0.0105c-1.933-29e-4-3.5023 1.5617-3.5053 3.4948-29e-4 1.933 1.5618 3.5023 3.4948 3.5052h0.0105c1.933 29e-4 3.5023-1.5617 3.5052-3.4947 3e-3-1.9331-1.5617-3.5024-3.4947-3.5053zM31.1695 48.6605c-0.2197 0.2184-0.5173 0.3407-0.8272 0.3395-0.6443-34e-4-1.1639-0.5284-1.1606-1.1727 17e-4-0.3084 0.1253-0.6036 0.3439-0.8211 0.2172-0.216 0.5104-0.3379 0.8167-0.3395 0.6443 33e-4 1.1639 0.5283 1.1605 1.1726-16e-4 0.3084-0.1252 0.6036-0.3438 0.8212z" />
        </symbol>
        <symbol id="clock1" viewBox="0 0 70 70" fill="var(--color1, #2196f3)">
            <path fill="var(--color0, #212121)" d="M68.4614 33.4715C68.4576 14.9819 53.4656-37e-4 34.9754 0 16.4858 37e-4 1.5002 14.9963 1.5039 33.4859c32e-4 14.5643 9.4213 27.4554 23.2956 31.8854 0.1324 0.0417 0.2702 0.063 0.4086 0.0625 0.2638-5e-4 0.5223-0.071 0.7492-0.2051 0.2954-0.1746 0.5159-0.4523 0.6195-0.7797l8.4547-26.7969c2.3114-0.0117 4.1753-1.8953 4.163-4.2062-0.0118-2.3114-1.8948-4.1753-4.2062-4.1635-0.6217 26e-4-1.2353 0.1458-1.7939 0.4187L22.0251 18.5302c-0.5544-0.5351-1.4372-0.5196-1.9723 0.0342-0.5223 0.541-0.5223 1.3976 0 1.9386l11.1634 11.1762c-0.8566 1.7485-0.3669 3.8591 1.1733 5.0511l-8.0557 25.5344C8.4135 56.4002 0.2617 38.7405 6.1262 22.8203 11.9907 6.9 29.6503-1.2518 45.5706 4.6127c15.9203 5.8644 24.0721 23.5247 18.2076 39.4444-2.8652 7.778-8.7521 14.0681-16.3234 17.4418l-0.8706-4.1c-0.1591-0.7535-0.8998-1.2353-1.6534-1.0756-0.2377 0.0508-0.4582 0.1624-0.6398 0.3242l-8.3932 7.4934c-0.5758 0.5121-0.627 1.3938-0.1143 1.9696 0.1666 0.1869 0.3802 0.3257 0.6195 0.4021l10.7158 3.4201c0.7333 0.2355 1.5189-0.1677 1.7544-0.9015 0.0748-0.2318 0.0871-0.4785 0.0369-0.7167l-0.8556-4.023c12.3907-5.2237 20.4357-17.3735 20.4069-30.82zM34.9829 32.0766c0.7701 0 1.395 0.6248 1.395 1.3949 0 0.7707-0.6249 1.395-1.395 1.395-0.7706 0-1.3949-0.6243-1.3949-1.395 0-0.7701 0.6243-1.3949 1.3949-1.3949zM39.5774 64.5916l4.7777-4.2618 1.3186 6.2132z" />
            <path d="M33.5879 6.9673v2.7899c0 0.7706 0.6243 1.395 1.3949 1.395 0.7702 0 1.395-0.6244 1.395-1.395V6.9673c0-0.7701-0.6248-1.395-1.395-1.395-0.7706 0-1.3949 0.6249-1.3949 1.395z" />
            <path d="M8.4787 32.0765c-0.7706 0-1.395 0.6249-1.395 1.395 0 0.7706 0.6243 1.395 1.395 1.395h2.7899c0.7707 0 1.395-0.6244 1.395-1.395 0-0.7701-0.6243-1.395-1.395-1.395z" />
            <path d="M61.4865 34.8665c0.7707 0 1.395-0.6244 1.395-1.395 0-0.7701-0.6243-1.395-1.395-1.395h-2.7899c-0.7701 0-1.395 0.6249-1.395 1.395 0 0.7706 0.6249 1.395 1.395 1.395z" />
        </symbol>
    </defs>
</svg>